HIERARCHY
ROOT Hips
{
    OFFSET 0.0 0.0 0.0
    CHANNELS 6 Xposition Yposition Zposition Zrotation Xrotation Yrotation
    JOINT LeftUpLeg
    {
        OFFSET 13.736480757264175 0.0 0.0
        CHANNELS 3 Zrotation Xrotation Yrotation
        JOINT LeftLeg
        {
            OFFSET 0.0 0.0 -72.15411673637055
            CHANNELS 3 Zrotation Xrotation Yrotation
            JOINT LeftFoot
            {
                OFFSET 0.0 0.0 -54.778427755229785
                CHANNELS 3 Zrotation Xrotation Yrotation
                JOINT LeftToeBase
                {
                    OFFSET 0.0 -13.190517394939368 0.0
                    CHANNELS 3 Zrotation Xrotation Yrotation
                    End Site
                    {
                        OFFSET 0 0 0
                    }
                }
            }
        }
    }
    JOINT RightUpLeg
    {
        OFFSET -13.736480757264175 0.0 0.0
        CHANNELS 3 Zrotation Xrotation Yrotation
        JOINT RightLeg
        {
            OFFSET 0.0 0.0 -72.15411673637055
            CHANNELS 3 Zrotation Xrotation Yrotation
            JOINT RightFoot
            {
                OFFSET 0.0 0.0 -54.778427755229785
                CHANNELS 3 Zrotation Xrotation Yrotation
                JOINT RightToeBase
                {
                    OFFSET 0.0 -13.190517394939368 0.0
                    CHANNELS 3 Zrotation Xrotation Yrotation
                    End Site
                    {
                        OFFSET 0 0 0
                    }
                }
            }
        }
    }
    JOINT Spine
    {
        OFFSET 0.0 0.0 11.385258396416896
        CHANNELS 3 Zrotation Xrotation Yrotation
        JOINT Spine1
        {
            OFFSET 0.0 0.0 10.612389466671523
            CHANNELS 3 Zrotation Xrotation Yrotation
            JOINT Spine2
            {
                OFFSET 0.0 0.0 10.612389466671527
                CHANNELS 3 Zrotation Xrotation Yrotation
                JOINT Spine3
                {
                    OFFSET 0.0 0.0 10.61238946667152
                    CHANNELS 3 Zrotation Xrotation Yrotation
                    JOINT Spine4
                    {
                        OFFSET 0.0 0.0 10.612389466671528
                        CHANNELS 3 Zrotation Xrotation Yrotation
                        JOINT RightShoulder
                        {
                            OFFSET -22.96558481523927 0.0 0.0
                            CHANNELS 3 Zrotation Xrotation Yrotation
                            JOINT RightArm
                            {
                                OFFSET -37.01130762853134 0.0 0.0
                                CHANNELS 3 Zrotation Xrotation Yrotation
                                JOINT RightForeArm
                                {
                                    OFFSET -34.399651216615766 0.0 0.0
                                    CHANNELS 3 Zrotation Xrotation Yrotation
                                    JOINT RightHand
                                    {
                                        OFFSET -11.595880312299077 0.0 0.0
                                        CHANNELS 3 Zrotation Xrotation Yrotation
                                        End Site
                                        {
                                            OFFSET 0 0 0
                                        }
                                    }
                                }
                            }
                        }
                        JOINT LeftShoulder
                        {
                            OFFSET 22.96558481523927 0.0 0.0
                            CHANNELS 3 Zrotation Xrotation Yrotation
                            JOINT LeftArm
                            {
                                OFFSET 37.01130762853134 0.0 0.0
                                CHANNELS 3 Zrotation Xrotation Yrotation
                                JOINT LeftForeArm
                                {
                                    OFFSET 34.399651216615766 0.0 0.0
                                    CHANNELS 3 Zrotation Xrotation Yrotation
                                    JOINT LeftHand
                                    {
                                        OFFSET 11.595880312299077 0.0 0.0
                                        CHANNELS 3 Zrotation Xrotation Yrotation
                                        End Site
                                        {
                                            OFFSET 0 0 0
                                        }
                                    }
                                }
                            }
                        }
                        JOINT Neck
                        {
                            OFFSET 0.0 0.0 10.612389409632936
                            CHANNELS 3 Zrotation Xrotation Yrotation
                            JOINT Head
                            {
                                OFFSET 0.0 0.0 25.403284915479528
                                CHANNELS 3 Zrotation Xrotation Yrotation
                                End Site
                                {
                                    OFFSET 0 0 0
                                }
                            }
                        }
                    }
                }
            }
        }
    }
}
MOTION
Frames: 5
Frame Time: 0.03333333333333333
50.797373914718634 22.16068071126938 465.73885574340824 67.57973915309431 -67.23724336075642 69.47575193170958 11.45242684376688 -15.500202072878155 -2.6530233858022054 4.59313129701329 -3.384386610607093 13.966784442905384 -118.08322849185635 0.0 55.609927612163354 0.0 0.0 0.0 -7.040422309048388 -13.010283929565801 0.5115304406127663 -5.6100013758782605 -5.02641190421419 -11.717996514811363 108.95567952874424 -9.54166404439055e-15 -52.6173908382093 0.0 0.0 4.770832022195277e-15 0.5179831857788626 -10.586967791016052 0.9008993059087281 0.0 0.0 0.0 0.0 0.0 0.0 0.0 0.0 0.0 0.0 0.0 0.0 86.06597185768962 -14.66888759219167 106.90101304612176 23.94355699897499 2.4984684639311744e-15 2.830377816716067e-16 -1.7068471407054683e-14 5.577953644434435 7.200148804121806e-15 2.5842006786891076e-15 0.0 0.0 -162.9622494857394 18.74844309433779 165.91015960478447 -122.40503802434675 6.55247060891593e-15 -1.44901114890045e-14 180.0 -77.66612177484417 -180.0 3.975693351829396e-16 4.138037154422024e-33 1.1927080055488188e-15 -5.6132752766725185 -5.991446450598428e-15 4.482835260861566e-15 1.5902773407317582e-15 -2.2069531490250793e-32 -1.5902773407317582e-15
51.07296323776245 22.34132949113846 465.2907583236695 69.05570242788086 -67.88015412456761 70.5939572223386 10.547265233200966 -14.368946652004018 -3.1088329277325952 5.606749175366657 -4.1516089845185125 14.930392368934564 -119.01964286451744 0.0 56.59193755355968 0.0 0.0 0.0 -6.077497081852283 -11.409097523468443 0.4854632165167465 -8.297191834150992 -7.336185934567414 -10.837442947179932 111.44374572416034 -3.1805546814635168e-15 -54.31986551973191 -1.7655625192200634e-31 6.3611093629270335e-15 3.1805546814635168e-15 0.4273315765481915 -9.824367659745022 0.6960625706859082 1.5902773407317584e-15 0.0 0.0 1.5902773407317584e-15 0.0 0.0 1.5902773407317584e-15 0.0 0.0 1.5902773407317584e-15 0.0 0.0 87.20376860427835 -14.44582745922622 107.20021302301994 24.067022558566155 -2.3902845584876667e-15 2.1355395541906308e-15 -7.558536519207808e-15 2.337827868933014 1.542261007423101e-16 -1.987846675914698e-15 0.0 0.0 -161.34961144802662 19.831988933754793 165.9041119122346 -121.42499010138845 -1.5559027309058076e-15 -2.7740033838730884e-15 -180.0 -76.36919497969738 -180.0 1.1927080055488188e-15 1.4483130040477084e-32 1.3914926731402886e-15 -5.826129802942607 2.6616803245504454e-15 -1.4568915601660783e-15 0.0 -6.361109362927035e-15 0.0
51.380866098403935 22.607881772518162 464.7409744262696 70.33065140681319 -68.62049562166517 71.49919611963196 9.27776997631734 -12.936571614807571 -4.002694340083298 7.506467414665052 -5.47173541086319 16.981945542046155 -120.83634581363341 9.54166404439055e-15 58.106270845103815 0.0 0.0 0.0 -4.462886099016101 -9.356288153823911 0.26746832122567404 -12.228460513072644 -10.717465355245006 -10.17586822965353 113.55526963963028 3.1805546814635168e-15 -57.44643670487503 0.0 0.0 0.0 0.36544119332224023 -9.121269091979487 0.4758595349851679 -1.5902773407317584e-15 0.0 0.0 -1.5902773407317584e-15 0.0 0.0 -1.5902773407317584e-15 0.0 0.0 -1.5902773407317584e-15 0.0 0.0 88.18045083676492 -14.200066302713685 107.91345380037053 24.205882387754183 -3.665306911265881e-15 -2.724389546219443e-17 4.866757680241279e-15 4.110101007660584 -8.131136883475714e-15 -3.975693351829396e-16 0.0 0.0 -160.75163495567395 21.431954265678943 166.49077037737203 -121.81067598973262 -1.2663455079571762e-14 3.4070049659370254e-15 180.0 -75.20945177768179 180.0 -1.987846675914698e-15 8.276074308844047e-32 -4.770832022195275e-15 -5.310586764694368 8.88448010198723e-15 -2.771939306267348e-15 -1.5902773407317584e-15 0.0 0.0
51.74183449745179 22.633174610137942 463.94233016967775 70.41626021763949 -69.40678339478951 71.12789034867465 8.040420497483613 -11.832217545458521 -4.6955311586162 9.531162822751211 -6.790794279225648 19.15046733065968 -122.35244034609526 -1.2722218725854067e-14 59.51574006526488 0.0 0.0 0.0 -2.527475892249791 -7.549902126014776 0.033439340148217 -16.20492290497641 -14.188472992279404 -10.062812037450152 108.52449573396494 -1.5902773407317584e-14 -53.880777448275545 0.0 0.0 0.0 0.3444072729721989 -8.695677537524423 0.331757114172735 0.0 0.0 0.0 0.0 0.0 0.0 0.0 0.0 0.0 0.0 0.0 0.0 90.0876577359382 -13.50471602210315 109.30306592855632 24.40367291841365 1.0494607637428419e-16 -3.2767605814194537e-15 -3.231760789940626e-15 11.772155030381684 3.3317632773148763e-16 2.3854160110976376e-15 6.620859447075238e-32 3.1805546814635168e-15 -160.69546493324947 22.375192147647883 166.57951969668096 -123.07753963817223 1.118460865020503e-14 -6.0629513151789975e-15 180.0 -73.7649232655588 180.0 -7.951386703658792e-16 1.3793457181406746e-33 -1.987846675914698e-16 -4.266005778349634 -2.8326242704185537e-14 2.1277453235215066e-15 1.5902773407317584e-15 0.0 0.0
52.10692856311798 22.514362478256228 463.05824546813966 69.66495183015184 -70.15346603019451 69.9343817122305 6.937898150447034 -11.039811571882842 -5.170451510410174 11.458575930971314 -7.986942839808127 21.07058520206765 -123.29989613403512 9.54166404439055e-15 60.41510539431764 0.0 0.0 0.0 -0.6115318951793998 -6.023622336518919 -0.24467530495937492 -19.93580776386635 -17.47656174932261 -10.399938869681932 101.18105487849171 9.54166404439055e-15 -49.72567323660753 0.0 0.0 0.0 0.34614443803669814 -8.455793597298 0.21871954675180896 -1.5902773407317584e-15 0.0 0.0 -1.5902773407317584e-15 0.0 0.0 -1.5902773407317584e-15 0.0 0.0 -1.5902773407317584e-15 0.0 0.0 91.82203768049992 -12.729607596943405 110.89743975736245 24.545024528989185 -4.3918873682317345e-15 -1.4858238517899558e-15 -6.300902980369963e-15 21.371999741439346 7.66234313637762e-15 2.3854160110976376e-15 0.0 0.0 -161.01500355504967 22.943679703752082 166.62742765023145 -124.80915324331781 -1.4733132255495159e-15 -2.818736635657963e-15 180.0 -72.40293376341546 180.0 -5.963540027744094e-16 -1.034509288605506e-33 1.987846675914698e-16 -2.982410842803503 -1.9871734542923445e-15 -5.173074038659891e-17 0.0 0.0 0.0
